HIERARCHY
ROOT SimulationBone
{
	OFFSET 0.000000 0.000000 0.000000
	CHANNELS 6 Xposition Yposition Zposition Zrotation Yrotation Xrotation 
	JOINT Hips
	{
		OFFSET 0.000000 0.000000 0.000000
		CHANNELS 6 Xposition Yposition Zposition Zrotation Yrotation Xrotation 
		JOINT LeftUpLeg
		{
			OFFSET 0.103457 1.857824 10.548504
			CHANNELS 3 Zrotation Yrotation Xrotation
			JOINT LeftLeg
			{
				OFFSET 43.500000 -0.000038 -0.000017
				CHANNELS 3 Zrotation Yrotation Xrotation
				JOINT LeftFoot
				{
					OFFSET 42.372200 0.000011 0.000019
					CHANNELS 3 Zrotation Yrotation Xrotation
					JOINT LeftToe
					{
						OFFSET 17.300011 0.000002 -0.000008
						CHANNELS 3 Zrotation Yrotation Xrotation
						End Site
						{
							OFFSET 0.000000 0.000000 0.000000
						}
					}
				}
			}
		}
		JOINT RightUpLeg
		{
			OFFSET 0.103457 1.857822 -10.548492
			CHANNELS 3 Zrotation Yrotation Xrotation
			JOINT RightLeg
			{
				OFFSET 43.500038 -0.000027 0.000036
				CHANNELS 3 Zrotation Yrotation Xrotation
				JOINT RightFoot
				{
					OFFSET 42.372261 0.000015 0.000010
					CHANNELS 3 Zrotation Yrotation Xrotation
					JOINT RightToe
					{
						OFFSET 17.299988 -0.000006 0.000008
						CHANNELS 3 Zrotation Yrotation Xrotation
						End Site
						{
							OFFSET 0.000000 0.000000 0.000000
						}
					}
				}
			}
		}
		JOINT Spine
		{
			OFFSET 6.901965 -2.603737 0.000006
			CHANNELS 3 Zrotation Yrotation Xrotation
			JOINT Spine1
			{
				OFFSET 12.588104 -0.000005 0.000007
				CHANNELS 3 Zrotation Yrotation Xrotation
				JOINT Spine2
				{
					OFFSET 12.343202 0.000026 -0.000008
					CHANNELS 3 Zrotation Yrotation Xrotation
					JOINT Neck
					{
						OFFSET 25.832890 -0.000029 -0.000007
						CHANNELS 3 Zrotation Yrotation Xrotation
						JOINT Head
						{
							OFFSET 11.766619 0.000021 0.000012
							CHANNELS 3 Zrotation Yrotation Xrotation
							End Site
							{
								OFFSET 0.000000 0.000000 0.000000
							}
						}
					}
					JOINT LeftShoulder
					{
						OFFSET 19.745909 -1.480377 6.000106
						CHANNELS 3 Zrotation Yrotation Xrotation
						JOINT LeftArm
						{
							OFFSET 11.284110 -0.000009 -0.000020
							CHANNELS 3 Zrotation Yrotation Xrotation
							JOINT LeftForeArm
							{
								OFFSET 33.000053 0.000014 0.000021
								CHANNELS 3 Zrotation Yrotation Xrotation
								JOINT LeftHand
								{
									OFFSET 25.200008 0.000006 -0.000004
									CHANNELS 3 Zrotation Yrotation Xrotation
									End Site
									{
										OFFSET 0.000000 0.000000 0.000000
									}
								}
							}
						}
					}
					JOINT RightShoulder
					{
						OFFSET 19.746101 -1.480381 -6.000081
						CHANNELS 3 Zrotation Yrotation Xrotation
						JOINT RightArm
						{
							OFFSET 11.284131 -0.000022 0.000003
							CHANNELS 3 Zrotation Yrotation Xrotation
							JOINT RightForeArm
							{
								OFFSET 33.000095 0.000014 0.000005
								CHANNELS 3 Zrotation Yrotation Xrotation
								JOINT RightHand
								{
									OFFSET 25.199774 0.000153 0.000423
									CHANNELS 3 Zrotation Yrotation Xrotation
									End Site
									{
										OFFSET 0.000000 0.000000 0.000000
									}
								}
							}
						}
					}
				}
			}
		}
	}
}
MOTION
Frames: 10
Frame Time: 0.016667
-166.096480 0.000000 604.405222 0.000000 22.889779 0.000000 -0.242515 90.928371 -0.121966 95.734044 0.837192 -179.445681 161.128515 -4.115100 176.994341 -28.863248 -2.705165 -0.135407 77.969962 0.081171 -0.380239 21.454556 0.003090 0.000001 -175.077293 -1.471593 179.782342 -18.952853 3.088618 1.925124 91.013466 -1.571303 -1.267667 21.454561 -0.003113 -0.000018 9.454698 0.623827 0.206336 8.899517 1.229873 0.460023 8.581367 1.232765 0.452594 15.051801 5.265412 3.952595 -19.272762 -9.589311 8.041044 -157.821885 -80.498070 -24.055643 -4.878638 60.729752 41.372449 -38.125862 -18.674241 1.648935 11.761204 -15.196734 1.127480 171.168881 73.163220 -7.679597 -9.546606 -47.654985 -31.606356 -48.277318 22.128395 -2.200495 0.392478 17.138814 -10.630177 
-164.797564 0.000000 603.961982 0.000000 22.871451 0.000000 -0.279901 90.852242 -0.115362 95.596562 0.630953 -179.483576 161.515450 -3.729999 177.416349 -23.805665 -2.767501 -0.691627 76.008168 0.581228 0.006108 21.454555 0.003097 0.000001 -174.311127 -1.380403 179.818513 -18.908633 3.012691 1.895809 91.494631 -1.574247 -1.485264 21.454562 -0.003113 -0.000018 9.415831 0.542857 0.231176 8.821539 1.066455 0.503043 8.503402 1.069608 0.496602 14.767216 5.235099 3.903171 -18.778429 -9.417110 7.883584 -157.460924 -80.720692 -24.417983 -4.349668 61.095282 41.853420 -37.468648 -18.616393 1.628268 11.970958 -15.441518 0.470602 170.951888 73.044880 -7.906005 -10.194472 -47.760537 -31.380917 -48.135364 22.064586 -2.191443 0.285408 17.430798 -10.978103 
-163.489817 0.000000 603.508149 0.000000 22.832323 0.000000 -0.272394 90.757956 -0.120209 95.509718 0.420665 -179.441118 162.027185 -3.422140 178.022700 -19.201884 -2.969882 -1.136370 74.412277 0.843285 -0.210453 21.454553 0.003097 0.000001 -173.476803 -1.320262 179.804216 -18.907482 2.869944 1.932193 91.963872 -1.584970 -1.456210 21.454560 -0.003111 -0.000017 9.376899 0.453299 0.241405 8.743205 0.887012 0.516347 8.425087 0.890250 0.510986 14.491296 5.325410 3.857269 -18.300837 -9.267969 7.745458 -156.885659 -81.042629 -24.995369 -4.035639 61.425522 42.472343 -36.618153 -18.427684 1.594729 12.219849 -15.727204 -0.595911 170.877266 72.930110 -7.986251 -10.835601 -47.961828 -31.060427 -47.938508 21.909243 -2.174297 0.221708 17.673318 -11.340987 
-162.174517 0.000000 603.044695 0.000000 22.770591 0.000000 -0.218032 90.638496 -0.137809 95.508714 0.187385 -179.336471 162.585331 -3.067305 178.753017 -15.396293 -3.088998 -1.385881 73.676587 0.802837 -0.931175 21.454553 0.003093 0.000001 -172.603634 -1.272401 179.786316 -19.079700 2.644845 1.995054 92.449266 -1.592094 -1.271449 21.454557 -0.003108 -0.000017 9.347580 0.354386 0.241639 8.683989 0.689592 0.509169 8.365888 0.692792 0.504998 14.221873 5.481155 3.786224 -17.855904 -9.133817 7.593554 -156.275832 -81.423381 -25.605994 -3.889692 61.703872 43.165431 -35.650199 -18.145620 1.553549 12.529195 -15.960407 -1.769735 170.907984 72.828179 -7.957994 -11.467907 -48.281203 -30.782743 -47.612449 21.800953 -2.156769 0.198637 17.912916 -11.568463 
-160.851704 0.000000 602.572789 0.000000 22.685031 0.000000 -0.126537 90.499718 -0.171795 95.618217 -0.104692 -179.198845 163.100622 -2.537356 179.535013 -12.714503 -2.964634 -1.372315 73.996890 0.487155 -1.952040 21.454555 0.003092 0.000000 -171.726310 -1.195115 179.806777 -19.527092 2.340091 2.049368 92.943163 -1.589878 -1.054733 21.454554 -0.003105 -0.000017 9.336012 0.243357 0.236636 8.660254 0.468283 0.490801 8.342165 0.471376 0.487968 13.968021 5.634839 3.668563 -17.463165 -9.006123 7.401246 -155.906379 -81.806858 -25.972472 -3.849807 61.916604 43.852051 -34.649766 -17.825069 1.509603 12.897136 -16.059330 -2.723936 170.969594 72.747800 -7.897342 -12.073634 -48.727684 -30.657251 -47.108014 21.852517 -2.144457 0.204862 18.160387 -11.545673 
-159.522012 0.000000 602.092041 0.000000 22.576207 0.000000 -0.024399 90.359650 -0.226227 95.807604 -0.459463 -179.036365 163.521573 -1.902890 -179.735567 -11.288254 -2.819421 -1.265861 74.523483 0.091960 -3.069181 21.454557 0.003094 0.000000 -170.857947 -1.062195 179.781453 -20.174675 2.038032 2.157347 93.379586 -1.626066 -0.838159 21.454555 -0.003105 -0.000017 9.337319 0.122271 0.223072 8.662276 0.227465 0.454657 8.344189 0.230343 0.453282 13.754198 5.740874 3.531818 -17.178776 -8.845306 7.185084 -155.597935 -82.088416 -26.279029 -3.969572 62.018710 44.410510 -33.646447 -17.477235 1.464501 13.172975 -16.093913 -3.435437 170.948965 72.702162 -7.919926 -12.602467 -49.270132 -30.582451 -46.551990 21.975049 -2.134573 0.240467 18.354726 -11.412938 
-158.187762 0.000000 601.600988 0.000000 22.447677 0.000000 0.065901 90.237911 -0.301873 96.033068 -0.859601 -178.870827 163.821921 -1.269611 -179.166748 -11.129713 -2.866703 -1.185888 74.386082 -0.251502 -4.019780 21.454555 0.003096 0.000001 -170.031417 -0.859139 179.654500 -20.956046 1.809188 2.352862 93.673753 -1.725968 -0.623594 21.454559 -0.003108 -0.000017 9.342734 -0.004313 0.202670 8.672592 -0.023842 0.404438 8.354499 -0.021263 0.404583 13.604821 5.780544 3.406228 -17.040403 -8.629362 6.969605 -155.124596 -82.182663 -26.756341 -4.322134 61.978326 44.746167 -32.643005 -17.103687 1.418721 13.230157 -16.192520 -3.961990 170.788483 72.695176 -8.084744 -13.001854 -49.862053 -30.443304 -46.090224 22.051936 -2.124992 0.304707 18.435605 -11.336633 
-156.851724 0.000000 601.098727 0.000000 22.304834 0.000000 0.150880 90.148323 -0.391693 96.254160 -1.235933 -178.791992 164.054191 -0.691605 -178.840198 -11.960021 -2.961695 -0.734110 73.706906 -0.700609 -4.352055 21.454553 0.003096 0.000001 -169.378077 -0.615402 179.607228 -22.013517 1.590650 2.469880 93.725576 -1.772709 -0.380804 21.454562 -0.003111 -0.000017 9.340836 -0.126651 0.205342 8.668382 -0.268366 0.400619 8.350280 -0.265806 0.402239 13.527427 5.819282 3.282844 -16.974261 -8.434827 6.767945 -154.649877 -82.134028 -27.238039 -4.937875 61.846480 44.918136 -31.590006 -16.711004 1.371217 13.173860 -16.555851 -4.374395 170.689937 72.689567 -8.186050 -13.237854 -50.442196 -30.281629 -45.765261 22.057346 -2.115379 0.388633 18.417195 -11.329909 
-155.516390 0.000000 600.585083 0.000000 22.150374 0.000000 0.244596 90.101814 -0.488809 96.444270 -1.537522 -178.866828 164.297750 -0.186665 -178.758450 -13.387635 -2.915290 0.358527 72.834498 -1.333031 -3.763458 21.454551 0.003092 0.000001 -168.999037 -0.357344 179.834258 -23.475545 1.296505 2.346733 93.460536 -1.650110 -0.088443 21.454559 -0.003111 -0.000017 9.322547 -0.238627 0.254984 8.631271 -0.495632 0.491471 8.313163 -0.492519 0.494459 13.518868 5.928386 3.150129 -16.890496 -8.340060 6.591199 -154.309780 -82.012677 -27.585010 -5.798344 61.694907 44.984394 -30.459758 -16.309956 1.322332 13.132970 -17.300353 -4.709038 170.834167 72.650667 -8.039501 -13.287472 -50.963291 -30.182761 -45.578280 22.000597 -2.105795 0.487476 18.332561 -11.356763 
-154.184092 0.000000 600.060211 0.000000 21.984757 0.000000 0.362611 90.103539 -0.592092 96.622981 -1.840558 -179.016790 164.665274 0.324404 -178.637150 -14.863458 -2.794736 1.326581 72.051507 -1.729250 -2.741388 21.454551 0.003090 0.000000 -168.781570 -0.037400 -179.645668 -25.209482 0.902350 2.025448 92.918138 -1.389573 0.205352 21.454557 -0.003110 -0.000017 9.291309 -0.353842 0.323097 8.567981 -0.730644 0.619138 8.249873 -0.726754 0.623540 13.551481 6.118743 3.026529 -16.748556 -8.334432 6.452813 -153.780052 -81.858027 -28.124984 -6.740387 61.594794 44.836990 -29.363054 -15.923768 1.276675 13.090002 -18.142524 -4.849178 171.056882 72.593740 -7.812987 -13.165600 -51.445933 -30.237738 -45.469101 21.940866 -2.098401 0.619407 18.215766 -11.338430 
